<svg xmlns="http://www.w3.org/2000/svg" viewBox="0 0 600 600" fill="none" stroke="#b28a3c" stroke-width="1.4">
<circle cx="300" cy="300" r="285"/>
<circle cx="300" cy="300" r="262"/>
<circle cx="300" cy="300" r="150"/>
<circle cx="300" cy="300" r="120"/>
<circle cx="300" cy="300" r="60"/>
<path d="M450.0,300.0 Q504.2,326.9 562.0,300.0 Q504.2,273.1 450.0,300.0 Z"/>
<path d="M444.9,338.8 Q490.3,378.8 553.1,367.8 Q504.2,326.9 444.9,338.8 Z"/>
<path d="M429.9,375.0 Q463.4,425.4 526.9,431.0 Q490.3,378.8 429.9,375.0 Z"/>
<path d="M406.1,406.1 Q425.4,463.4 485.3,485.3 Q463.4,425.4 406.1,406.1 Z"/>
<path d="M375.0,429.9 Q378.8,490.3 431.0,526.9 Q425.4,463.4 375.0,429.9 Z"/>
<path d="M338.8,444.9 Q326.9,504.2 367.8,553.1 Q378.8,490.3 338.8,444.9 Z"/>
<path d="M300.0,450.0 Q273.1,504.2 300.0,562.0 Q326.9,504.2 300.0,450.0 Z"/>
<path d="M261.2,444.9 Q221.2,490.3 232.2,553.1 Q273.1,504.2 261.2,444.9 Z"/>
<path d="M225.0,429.9 Q174.6,463.4 169.0,526.9 Q221.2,490.3 225.0,429.9 Z"/>
<path d="M193.9,406.1 Q136.6,425.4 114.7,485.3 Q174.6,463.4 193.9,406.1 Z"/>
<path d="M170.1,375.0 Q109.7,378.8 73.1,431.0 Q136.6,425.4 170.1,375.0 Z"/>
<path d="M155.1,338.8 Q95.8,326.9 46.9,367.8 Q109.7,378.8 155.1,338.8 Z"/>
<path d="M150.0,300.0 Q95.8,273.1 38.0,300.0 Q95.8,326.9 150.0,300.0 Z"/>
<path d="M155.1,261.2 Q109.7,221.2 46.9,232.2 Q95.8,273.1 155.1,261.2 Z"/>
<path d="M170.1,225.0 Q136.6,174.6 73.1,169.0 Q109.7,221.2 170.1,225.0 Z"/>
<path d="M193.9,193.9 Q174.6,136.6 114.7,114.7 Q136.6,174.6 193.9,193.9 Z"/>
<path d="M225.0,170.1 Q221.2,109.7 169.0,73.1 Q174.6,136.6 225.0,170.1 Z"/>
<path d="M261.2,155.1 Q273.1,95.8 232.2,46.9 Q221.2,109.7 261.2,155.1 Z"/>
<path d="M300.0,150.0 Q326.9,95.8 300.0,38.0 Q273.1,95.8 300.0,150.0 Z"/>
<path d="M338.8,155.1 Q378.8,109.7 367.8,46.9 Q326.9,95.8 338.8,155.1 Z"/>
<path d="M375.0,170.1 Q425.4,136.6 431.0,73.1 Q378.8,109.7 375.0,170.1 Z"/>
<path d="M406.1,193.9 Q463.4,174.6 485.3,114.7 Q425.4,136.6 406.1,193.9 Z"/>
<path d="M429.9,225.0 Q490.3,221.2 526.9,169.0 Q463.4,174.6 429.9,225.0 Z"/>
<path d="M444.9,261.2 Q504.2,273.1 553.1,232.2 Q490.3,221.2 444.9,261.2 Z"/>
<path d="M360.0,300.0 Q402.6,322.5 450.0,300.0 Q402.6,277.5 360.0,300.0 Z"/>
<path d="M355.4,323.0 Q386.1,360.0 438.6,357.4 Q403.4,318.5 355.4,323.0 Z"/>
<path d="M342.4,342.4 Q356.6,388.4 406.1,406.1 Q388.4,356.6 342.4,342.4 Z"/>
<path d="M323.0,355.4 Q318.5,403.4 357.4,438.6 Q360.0,386.1 323.0,355.4 Z"/>
<path d="M300.0,360.0 Q277.5,402.6 300.0,450.0 Q322.5,402.6 300.0,360.0 Z"/>
<path d="M277.0,355.4 Q240.0,386.1 242.6,438.6 Q281.5,403.4 277.0,355.4 Z"/>
<path d="M257.6,342.4 Q211.6,356.6 193.9,406.1 Q243.4,388.4 257.6,342.4 Z"/>
<path d="M244.6,323.0 Q196.6,318.5 161.4,357.4 Q213.9,360.0 244.6,323.0 Z"/>
<path d="M240.0,300.0 Q197.4,277.5 150.0,300.0 Q197.4,322.5 240.0,300.0 Z"/>
<path d="M244.6,277.0 Q213.9,240.0 161.4,242.6 Q196.6,281.5 244.6,277.0 Z"/>
<path d="M257.6,257.6 Q243.4,211.6 193.9,193.9 Q211.6,243.4 257.6,257.6 Z"/>
<path d="M277.0,244.6 Q281.5,196.6 242.6,161.4 Q240.0,213.9 277.0,244.6 Z"/>
<path d="M300.0,240.0 Q322.5,197.4 300.0,150.0 Q277.5,197.4 300.0,240.0 Z"/>
<path d="M323.0,244.6 Q360.0,213.9 357.4,161.4 Q318.5,196.6 323.0,244.6 Z"/>
<path d="M342.4,257.6 Q388.4,243.4 406.1,193.9 Q356.6,211.6 342.4,257.6 Z"/>
<path d="M355.4,277.0 Q403.4,281.5 438.6,242.6 Q386.1,240.0 355.4,277.0 Z"/>
<path d="M318.0,300.0 Q337.1,312.1 360.0,300.0 Q337.1,287.9 318.0,300.0 Z"/>
<path d="M315.6,309.0 Q326.1,329.0 352.0,330.0 Q338.1,308.1 315.6,309.0 Z"/>
<path d="M309.0,315.6 Q308.1,338.1 330.0,352.0 Q329.0,326.1 309.0,315.6 Z"/>
<path d="M300.0,318.0 Q287.9,337.1 300.0,360.0 Q312.1,337.1 300.0,318.0 Z"/>
<path d="M291.0,315.6 Q271.0,326.1 270.0,352.0 Q291.9,338.1 291.0,315.6 Z"/>
<path d="M284.4,309.0 Q261.9,308.1 248.0,330.0 Q273.9,329.0 284.4,309.0 Z"/>
<path d="M282.0,300.0 Q262.9,287.9 240.0,300.0 Q262.9,312.1 282.0,300.0 Z"/>
<path d="M284.4,291.0 Q273.9,271.0 248.0,270.0 Q261.9,291.9 284.4,291.0 Z"/>
<path d="M291.0,284.4 Q291.9,261.9 270.0,248.0 Q271.0,273.9 291.0,284.4 Z"/>
<path d="M300.0,282.0 Q312.1,262.9 300.0,240.0 Q287.9,262.9 300.0,282.0 Z"/>
<path d="M309.0,284.4 Q329.0,273.9 330.0,248.0 Q308.1,261.9 309.0,284.4 Z"/>
<path d="M315.6,291.0 Q338.1,291.9 352.0,270.0 Q326.1,271.0 315.6,291.0 Z"/>
<circle cx="574.0" cy="300.0" r="2.2" fill="#b28a3c" stroke="none"/>
<circle cx="569.8" cy="347.6" r="2.2" fill="#b28a3c" stroke="none"/>
<circle cx="557.5" cy="393.7" r="2.2" fill="#b28a3c" stroke="none"/>
<circle cx="537.3" cy="437.0" r="2.2" fill="#b28a3c" stroke="none"/>
<circle cx="509.9" cy="476.1" r="2.2" fill="#b28a3c" stroke="none"/>
<circle cx="476.1" cy="509.9" r="2.2" fill="#b28a3c" stroke="none"/>
<circle cx="437.0" cy="537.3" r="2.2" fill="#b28a3c" stroke="none"/>
<circle cx="393.7" cy="557.5" r="2.2" fill="#b28a3c" stroke="none"/>
<circle cx="347.6" cy="569.8" r="2.2" fill="#b28a3c" stroke="none"/>
<circle cx="300.0" cy="574.0" r="2.2" fill="#b28a3c" stroke="none"/>
<circle cx="252.4" cy="569.8" r="2.2" fill="#b28a3c" stroke="none"/>
<circle cx="206.3" cy="557.5" r="2.2" fill="#b28a3c" stroke="none"/>
<circle cx="163.0" cy="537.3" r="2.2" fill="#b28a3c" stroke="none"/>
<circle cx="123.9" cy="509.9" r="2.2" fill="#b28a3c" stroke="none"/>
<circle cx="90.1" cy="476.1" r="2.2" fill="#b28a3c" stroke="none"/>
<circle cx="62.7" cy="437.0" r="2.2" fill="#b28a3c" stroke="none"/>
<circle cx="42.5" cy="393.7" r="2.2" fill="#b28a3c" stroke="none"/>
<circle cx="30.2" cy="347.6" r="2.2" fill="#b28a3c" stroke="none"/>
<circle cx="26.0" cy="300.0" r="2.2" fill="#b28a3c" stroke="none"/>
<circle cx="30.2" cy="252.4" r="2.2" fill="#b28a3c" stroke="none"/>
<circle cx="42.5" cy="206.3" r="2.2" fill="#b28a3c" stroke="none"/>
<circle cx="62.7" cy="163.0" r="2.2" fill="#b28a3c" stroke="none"/>
<circle cx="90.1" cy="123.9" r="2.2" fill="#b28a3c" stroke="none"/>
<circle cx="123.9" cy="90.1" r="2.2" fill="#b28a3c" stroke="none"/>
<circle cx="163.0" cy="62.7" r="2.2" fill="#b28a3c" stroke="none"/>
<circle cx="206.3" cy="42.5" r="2.2" fill="#b28a3c" stroke="none"/>
<circle cx="252.4" cy="30.2" r="2.2" fill="#b28a3c" stroke="none"/>
<circle cx="300.0" cy="26.0" r="2.2" fill="#b28a3c" stroke="none"/>
<circle cx="347.6" cy="30.2" r="2.2" fill="#b28a3c" stroke="none"/>
<circle cx="393.7" cy="42.5" r="2.2" fill="#b28a3c" stroke="none"/>
<circle cx="437.0" cy="62.7" r="2.2" fill="#b28a3c" stroke="none"/>
<circle cx="476.1" cy="90.1" r="2.2" fill="#b28a3c" stroke="none"/>
<circle cx="509.9" cy="123.9" r="2.2" fill="#b28a3c" stroke="none"/>
<circle cx="537.3" cy="163.0" r="2.2" fill="#b28a3c" stroke="none"/>
<circle cx="557.5" cy="206.3" r="2.2" fill="#b28a3c" stroke="none"/>
<circle cx="569.8" cy="252.4" r="2.2" fill="#b28a3c" stroke="none"/>
</svg>